<?xml version="1.0" standalone="no"?><!DOCTYPE svg PUBLIC "-//W3C//DTD SVG 1.1//EN" "http://www.w3.org/Graphics/SVG/1.1/DTD/svg11.dtd"><svg t="1653289808350" class="icon" viewBox="0 0 3704 1024" version="1.1" xmlns="http://www.w3.org/2000/svg" p-id="2882" xmlns:xlink="http://www.w3.org/1999/xlink" width="723.4375" height="200"><defs><style type="text/css">@font-face { font-family: feedback-iconfont; src: url("//at.alicdn.com/t/font_1031158_u69w8yhxdu.woff2?t=1630033759944") format("woff2"), url("//at.alicdn.com/t/font_1031158_u69w8yhxdu.woff?t=1630033759944") format("woff"), url("//at.alicdn.com/t/font_1031158_u69w8yhxdu.ttf?t=1630033759944") format("truetype"); }
</style></defs><path d="M1335.296 284.315826c48.350609 0 90.557217 8.904348 126.70887 26.713044l-17.630609 59.837217c-19.678609-9.349565-37.932522-16.294957-54.494609-20.74713-16.65113-4.452174-33.391304-6.678261-50.309565-6.678261-25.288348 0-45.32313 5.431652-59.837217 16.205913s-21.815652 25.822609-21.815653 45.056c0 16.918261 5.609739 30.274783 16.918261 40.158608 11.219478 9.883826 29.562435 18.788174 54.850783 26.713044l43.631304 14.068869c38.466783 12.198957 66.604522 29.206261 84.413218 51.021913 17.808696 21.815652 26.713043 47.014957 26.713043 75.686957 0 19.233391-3.739826 36.864-11.219478 52.802783-7.479652 15.938783-18.16487 29.562435-32.055652 40.781913-13.890783 11.219478-30.630957 20.034783-50.309566 26.356869-19.678609 6.322087-41.494261 9.527652-65.446956 9.527652-23.952696 0-47.727304-2.226087-71.41287-6.67826-23.685565-4.452174-46.83687-12.109913-69.275826-22.884174l17.630609-59.12487c20.123826 9.883826 39.891478 17.274435 59.12487 22.171826 19.233391 4.897391 39.446261 7.390609 60.549565 7.390609 25.288348 0 45.946435-5.431652 61.885217-16.205913s23.952696-26.713043 23.952696-47.816348c0-15.048348-5.520696-28.40487-16.562087-40.158609-11.041391-11.753739-32.50087-22.706087-64.378435-33.03513l-41.494261-13.356522c-32.322783-10.774261-57.789217-25.199304-76.310261-43.27513-18.521043-18.075826-27.781565-43.27513-27.781565-75.686957 0-38.912 13.089391-70.166261 39.446261-93.584696 26.089739-23.507478 64.289391-35.261217 114.509913-35.261217zM1738.573913 456.080696h-94.297043v179.422608c0 16.384 3.917913 27.425391 11.575652 33.035131 7.657739 5.609739 18.16487 8.45913 31.343304 8.45913 9.349565 0 19.322435-1.068522 29.918609-3.205565s19.856696-4.541217 27.781565-7.390609l11.219478 53.515131c-9.349565 3.739826-21.459478 7.123478-36.240695 10.24-14.781217 3.027478-30.363826 4.541217-46.83687 4.541217-35.617391 0-61.350957-7.390609-77.022609-22.171826-15.760696-14.781217-23.596522-36.685913-23.596521-65.80313V456.080696h-50.66574v-53.515131h50.66574V297.672348h71.769043v104.893217h94.297044v53.515131h0.089043zM2126.972661 565.158957c0 27.692522-4.354226 52.535652-12.991444 74.618434-8.726261 22.082783-20.577948 40.603826-35.537252 55.563131a152.406817 152.406817 0 0 1-52.793878 34.459826c-20.21287 8.013913-42.037426 11.931826-65.455861 11.931826-23.507478 0-45.145043-3.739826-65.090783-11.219478-19.945739-7.479652-37.309217-18.432-52.090434-32.678957-14.781217-14.336-26.267826-32.055652-34.459826-53.158956-8.192-21.103304-12.288-45.234087-12.288-72.481392 0-28.137739 4.36313-52.98087 13.000347-74.618434 8.637217-21.548522 20.48-39.891478 35.528348-54.850783a150.305391 150.305391 0 0 1 52.802783-34.103652c20.123826-7.746783 41.948383-11.575652 65.455861-11.575652 23.418435 0 45.145043 3.650783 65.090782 10.952347 19.945739 7.301565 37.300313 17.986783 52.081531 32.055653 14.781217 14.06887 26.27673 31.699478 34.46873 52.802782 8.192 20.925217 12.279096 45.056 12.279096 72.303305z m-75.241739 3.472695c0-21.103304-2.582261-39.090087-7.746783-53.871304-5.164522-14.781217-11.931826-26.89113-20.390956-36.240696-8.45913-9.349565-18.066922-16.205913-28.841183-20.390956s-22.091687-6.322087-33.756383-6.322087c-11.219478 0-22.251965 1.869913-33.026226 5.609739-10.774261 3.739826-20.399861 10.061913-28.858991 18.966261-8.45913 8.904348-15.137391 20.836174-20.034783 35.884521-4.897391 15.048348-7.390609 33.747478-7.390608 56.275479 0 20.658087 2.591165 38.466783 7.755687 53.51513 5.164522 15.048348 11.922922 27.336348 20.382052 36.953044 8.45913 9.616696 18.16487 16.65113 29.206261 21.103304 11.041391 4.452174 22.171826 6.678261 33.391304 6.678261 11.219478 0 22.269774-1.869913 33.044035-5.609739 10.774261-3.739826 20.382052-10.24 28.841182-19.322435 8.45913-9.171478 15.137391-21.370435 20.034783-36.59687 4.897391-15.226435 7.390609-34.103652 7.390609-56.631652zM2271.944348 734.697739h-72.481391v-332.132174h56.987826l9.883826 44.343652c16.384-15.938783 33.658435-28.226783 51.734261-36.953043 18.075826-8.637217 38.555826-13.000348 61.618087-13.000348 35.172174 0 62.419478 9.616696 81.652869 28.850087s28.850087 46.658783 28.850087 82.365217v226.615653h-72.481391V517.253565c0-19.233391-4.897391-34.459826-14.781218-45.768348-9.883826-11.219478-24.665043-16.918261-44.343652-16.91826-15.048348 0-29.918609 3.650783-44.699826 10.952347-14.781217 7.301565-28.761043 17.719652-41.850435 31.343305v237.83513h-0.089043zM2870.138435 581.275826h-232.937739v2.849391c0 33.747478 9.883826 59.392 29.562434 76.666435 19.678609 17.363478 45.768348 26.000696 78.091131 26.000696 17.808696 0 33.925565-1.513739 48.172522-4.541218 14.336-3.027478 28.761043-7.835826 43.27513-14.425043l14.06887 52.802783c-13.623652 6.144-29.829565 11.130435-48.528696 15.137391-18.69913 4.006957-39.357217 5.965913-61.885217 5.965913-23.952696 0-46.658783-3.294609-68.296348-9.883826-21.548522-6.589217-40.425739-16.918261-56.631652-30.987131-16.205913-14.06887-28.93913-31.877565-38.37774-53.51513-9.349565-21.548522-14.06887-47.37113-14.068869-77.378783 0-25.822609 3.82887-49.330087 11.575652-70.700521 7.746783-21.370435 18.788174-39.624348 33.124174-54.850783 14.336-15.226435 31.699478-26.980174 52.090435-35.172174 20.390957-8.192 43.008-12.288 67.940174-12.288 21.548522 0 41.138087 3.561739 58.768695 10.596174 17.630609 7.034435 32.589913 17.007304 45.056 29.918609 12.466087 12.911304 22.082783 28.582957 28.850087 47.104 6.767304 18.521043 10.24 39.090087 10.24 61.618087v35.08313h-0.089043z m-74.618435-50.665739c0-11.219478-1.424696-21.815652-4.185043-31.699478-2.849391-9.883826-7.034435-18.432-12.644174-25.644522-5.609739-7.301565-13.000348-13.089391-22.171826-17.630609-9.171478-4.452174-20.034783-6.678261-32.678957-6.678261-23.507478 0-42.562783 7.479652-57.344 22.528-14.781217 15.048348-23.774609 35.172174-27.069217 60.549566l156.093217-1.424696zM3095.952696 291.350261c32.411826 0 62.152348 4.452174 89.399652 13.356522 27.158261 8.904348 50.665739 22.171826 70.344348 39.802434 19.678609 17.630609 35.08313 39.624348 46.124521 66.159305 11.041391 26.534957 16.562087 57.344 16.562087 92.516174 0 41.761391-6.589217 77.289739-19.678608 106.585043-13.178435 29.295304-30.898087 53.248-53.158957 71.769044-22.26087 18.521043-48.350609 32.055652-78.09113 40.425739-29.829565 8.45913-61.083826 12.644174-93.94087 12.644174H2948.229565V291.350261h147.723131z m-72.481392 382.797913h43.631305c21.548522 0 42.562783-2.493217 62.953739-7.390609 20.390957-4.897391 38.555826-13.801739 54.494609-26.713043s28.761043-30.363826 38.377739-52.446609c9.616696-22.082783 14.425043-50.220522 14.425043-84.413217 0-48.795826-13.979826-86.194087-41.850435-112.194783-27.959652-26.000696-65.357913-39.090087-112.283826-39.090087h-59.837217v322.248348h0.089043zM3544.286609 291.350261c45.501217 0 80.940522 9.705739 106.228869 29.206261 25.288348 19.500522 38.021565 47.460174 38.021565 84.057043 0 13.623652-2.226087 25.644522-6.67826 36.240696-4.452174 10.596174-10.329043 19.678609-17.630609 27.425391-7.301565 7.746783-15.849739 14.157913-25.644522 19.322435-9.883826 5.164522-20.21287 9.171478-30.98713 11.931826 13.089391 2.31513 25.466435 6.41113 36.953043 12.288 11.486609 5.87687 21.459478 13.356522 29.918609 22.528 8.45913 9.171478 15.137391 20.034783 20.034783 32.678957s7.390609 26.980174 7.390608 42.918956c0 18.253913-4.006957 35.08313-11.931826 50.309565-8.013913 15.226435-19.144348 28.40487-33.391304 39.446261-14.336 11.041391-31.343304 19.589565-51.021913 25.644522-19.678609 6.144-41.494261 9.171478-65.446957 9.171478h-137.216V291.350261h141.401044z m-66.159305 182.272h50.665739c11.219478 0 21.904696-0.979478 32.055653-2.849391 10.061913-1.869913 18.788174-5.253565 26.000695-10.24 7.212522-4.986435 13.089391-11.486609 17.630609-19.678609 4.452174-8.192 6.678261-18.432 6.678261-30.630957 0-20.658087-7.034435-35.795478-21.103304-45.412174s-33.03513-14.425043-56.987827-14.425043h-54.850782v123.236174h-0.089044z m0 201.950609h52.802783c12.644174 0 24.665043-1.246609 35.884522-3.917913 11.219478-2.582261 21.103304-6.678261 29.562434-12.288a60.104348 60.104348 0 0 0 20.034783-22.171827c4.897391-9.171478 7.390609-20.48 7.390609-34.103652 0-13.089391-2.849391-24.30887-8.459131-33.391304a64.725704 64.725704 0 0 0-22.528-22.171826c-9.349565-5.609739-20.21287-9.616696-32.411826-11.931826s-24.84313-3.561739-38.021565-3.561739h-44.343652v143.538087h0.089043z" fill="#343434" p-id="2883"></path><path d="M935.66887 759.897043c8.904348 170.696348-48.439652 273.007304-253.952 255.287653-260.274087-22.349913-134.989913-95.098435-150.038261-389.298087-11.842783-231.424-25.377391-347.180522 160.100174-357.687652 85.74887-4.897391 175.326609 79.872 225.101913 326.16626 10.061913 50.665739 16.294957 118.873043 18.788174 165.531826z" fill="#00A6FB" p-id="2884"></path><path d="M483.862261 671.387826c0 216.82087-50.754783 349.050435-224.389565 344.865391-139.353043-3.294609-285.829565-141.222957-243.088696-378.078608 41.850435-232.047304 168.292174-361.427478 277.815652-361.427479 106.852174-0.089043 189.662609 177.730783 189.662609 394.640696z" fill="#FFBA28" p-id="2885"></path><path d="M831.309913 209.252174c-10.418087 104.448-75.686957 89.399652-428.655304 89.399652-204.354783 0-325.097739-11.041391-290.014609-99.995826C133.38713 146.031304 273.363478 19.767652 487.780174 9.260522 669.606957 0.445217 839.68 125.551304 831.309913 209.252174z" fill="#FC5A03" p-id="2886"></path></svg>