<?xml version="1.0" encoding="UTF-8"?>
<svg width="1024px" height="1024px" viewBox="0 0 1024 1024" version="1.1" xmlns="http://www.w3.org/2000/svg" xmlns:xlink="http://www.w3.org/1999/xlink">
    <title>AddOutlined</title>
    <path d="M1023.88153,452.311034 L1024,570.66406 L740.304236,570.947392 L728.605822,570.95975 C647.378371,571.041058 580.524138,632.485549 571.900422,711.435921 L570.95975,728.605822 L570.959233,729.469418 L570.95888,729.474614 L570.841146,847.241588 L570.66406,1024 L452.311034,1023.88153 L452.605821,729.006263 L452.584996,726.604316 C451.290441,646.365356 390.121556,580.706416 311.839273,572.302907 L294.646651,571.393576 L0.118471497,571.688966 L-2.95585778e-12,453.33594 L176.409205,453.158958 L176.758516,453.158958 L242.781076,453.09249 L294.525386,453.04112 L294.546949,453.040164 L295.394178,453.04025 C376.621629,452.958942 443.475862,391.514451 452.099578,312.564079 L453.04025,295.394178 L453.33594,-6.56541488e-12 L571.688966,0.118471497 L571.394146,294.643858 C571.312722,375.986435 632.790796,443.015989 711.846657,451.66267 L729.356142,452.605854 L1023.88153,452.311034 Z" id="形状结合" fill="#000000"></path>
</svg>