<?xml version="1.0" encoding="UTF-8"?>
<svg width="1024px" height="1024px" viewBox="0 0 1024 1024" version="1.1" xmlns="http://www.w3.org/2000/svg" xmlns:xlink="http://www.w3.org/1999/xlink">
    <title>BlogOutlined</title>
    <g id="BlogOutlined" stroke="none" stroke-width="1" fill="none" fill-rule="evenodd">
        <path d="M936.04487,876.792753 C930.743612,872.398507 807.754417,770.232284 687.945976,837.244538 C537.390237,921.833777 392.135757,955.889184 315.797636,925.129461 C263.845303,904.256792 224.615991,876.792753 197.049447,853.722961 L714.452269,710.909961 C729.295792,706.515714 739.898309,695.530099 744.139316,680.150237 L825.778695,380.242936 C830.019702,364.863075 825.778695,348.384652 815.176179,337.399036 L591.463073,105.602551 C580.860556,94.6169356 564.956781,90.2226895 550.113258,94.6169356 L260.664548,178.107613 C245.821024,182.501859 235.218508,194.586036 230.977501,208.867336 L74.0602517,820.766115 L74.0602517,821.864676 C74.0602517,824.061799 73,825.160361 73,827.357484 L73,837.244538 C73,839.441661 74.0602517,841.638784 74.0602517,843.835907 L74.0602517,844.934469 C75.1205034,847.131592 75.1205034,848.230153 76.1807551,850.427276 C77.2410067,850.427276 77.2410067,851.525838 77.2410067,851.525838 C78.3012584,853.722961 79.3615101,854.821523 80.4217618,857.018646 L80.4217618,858.117207 C85.7230202,865.807138 151.458625,952.5935 283.990085,1006.42302 C311.556629,1017.40863 345.484683,1024 382.593492,1024 C478.016143,1024 599.945087,986.648908 727.175289,915.242407 C797.1519,875.694192 880.911783,944.903569 880.911783,944.903569 C898.936062,960.283431 925.442354,956.987746 940.285877,938.3122 C956.189652,919.636654 954.069149,892.172615 936.04487,876.792753 L936.04487,876.792753 Z M307.315622,256.105482 L550.113258,185.797544 L738.838057,381.341498 L669.921698,632.912091 L256.423541,747.162491 L431.365069,565.899837 C462.112368,574.688329 496.040422,566.998399 519.365959,542.830045 C554.354264,506.577514 554.354264,448.353752 519.365959,412.101221 C502.668889,394.699061 479.963766,384.914028 456.280984,384.914028 C432.598201,384.914028 409.893078,394.699061 393.196008,412.101221 C368.81022,437.368137 361.388458,472.522106 370.930723,503.281829 L197.049447,684.544484 L307.315622,256.105482 Z M844.863226,294.555136 C853.345239,303.343629 863.947756,307.737875 874.550273,307.737875 C885.15279,307.737875 895.755306,303.343629 904.23732,294.555136 C921.201347,276.978152 921.201347,249.514113 904.23732,231.937128 L692.186983,12.22482 C676.283208,-4.25360314 649.776916,-4.25360314 632.812889,13.3233815 C615.848862,30.9003662 615.848862,58.3644047 632.812889,75.9413894 L844.863226,294.555136 L844.863226,294.555136 Z" id="形状" fill="#000000" fill-rule="nonzero"></path>
    </g>
</svg>