<?xml version="1.0" encoding="UTF-8"?>
<svg width="1024px" height="1024px" viewBox="0 0 1024 1024" version="1.1" xmlns="http://www.w3.org/2000/svg" xmlns:xlink="http://www.w3.org/1999/xlink">
    <title>CancelOutlined</title>
    <g id="CancelOutlined" stroke="none" stroke-width="1" fill="none" fill-rule="evenodd">
        <path d="M511,0 C793.217507,0 1022,229.230208 1022,512 C1022,794.769792 793.217507,1024 511,1024 C228.782493,1024 0,794.769792 0,512 C0,229.230208 228.782493,0 511,0 Z M511,39.3058462 C250.509168,39.3058462 39.3076923,250.920632 39.3076923,512 C39.3076923,773.079368 250.509168,984.694154 511,984.694154 C771.490832,984.694154 982.692308,773.079368 982.692308,512 C982.692308,250.920632 771.490832,39.3058462 511,39.3058462 Z M447.745,394.369 L447.703711,394.328322 C480.755179,427.444469 533.312245,429.23829 568.476379,399.672851 L574.288,394.336 L696.789686,271.595211 L751.043647,325.738122 L628.55,448.471 L628.145,448.876 L627.211157,449.828035 C595.252646,482.843697 593.750632,534.398014 622.705115,569.156268 L628.188919,575.166729 L628.547,575.526 L628.55025,575.528768 L703.582,650.707 L751.043647,698.261878 L696.789686,752.404789 L574.169696,629.545092 C541.051993,596.495177 488.491441,594.806574 453.38657,624.442348 L447.719,629.655 L325.210314,752.404789 L270.956353,698.261878 L348.495,620.57 L393.44975,575.528768 L393.459,575.519 L393.811081,575.166729 C426.713903,542.199518 428.541838,489.95308 399.294885,454.843732 L393.818,448.841 L393.463,448.485 L393.44975,448.471232 L270.956353,325.738122 L325.210314,271.595211 L447.745,394.369 Z" id="形状结合" fill="#000000" fill-rule="nonzero"></path>
    </g>
</svg>