<?xml version="1.0" encoding="UTF-8"?>
<svg width="1024px" height="1024px" viewBox="0 0 1024 1024" version="1.1" xmlns="http://www.w3.org/2000/svg" xmlns:xlink="http://www.w3.org/1999/xlink">
    <title>CancelOutFilled</title>
    <g id="CancelOutFilled" stroke="none" stroke-width="1" fill="none" fill-rule="evenodd">
        <path d="M512,0 C794.769792,0 1024,229.230208 1024,512 C1024,794.769792 794.769792,1024 512,1024 C229.230208,1024 0,794.769792 0,512 C0,229.230208 229.230208,0 512,0 Z M700.624182,274.605464 L577.883515,397.590464 L570.193864,404.494874 C533.61029,433.864826 480.005591,431.549124 446.108929,397.584532 L446.154515,397.629464 L323.375818,274.605464 L273.957515,323.92493 L397.052664,447.266763 L403.822401,454.821271 C433.15793,491.351263 430.901351,544.868821 397.052664,578.785341 L397.052664,578.785341 L373.701515,602.182464 L348.606515,627.327464 L273.957515,702.127174 L323.375818,751.446641 L446.108929,628.467572 L453.660768,621.67388 C490.18547,592.230746 543.794698,594.439127 577.759289,628.33579 L577.759289,628.33579 L700.624182,751.446641 L750.042485,702.127174 L626.947336,578.785341 L620.177599,571.230834 C590.84207,534.700842 593.098649,481.183283 626.947336,447.266763 L626.947336,447.266763 L636.167515,438.027464 L750.042485,323.92493 L700.624182,274.605464 Z" id="形状结合" fill="#000000"></path>
    </g>
</svg>