<?xml version="1.0" encoding="UTF-8"?>
<svg width="1024px" height="1024px" viewBox="0 0 1024 1024" version="1.1" xmlns="http://www.w3.org/2000/svg" xmlns:xlink="http://www.w3.org/1999/xlink">
    <title>CategoryFilled</title>
    <g id="CategoryFilled" stroke="none" stroke-width="1" fill="none" fill-rule="evenodd">
        <path d="M759.975051,317.129677 C753.974484,323.130253 753.674456,332.731175 759.274985,339.031779 C794.478311,378.635581 815.980343,430.740584 815.980343,487.946075 C815.980343,560.453035 781.577092,624.859219 728.172045,665.863155 C721.77144,670.763626 719.971271,679.66448 724.071658,686.565143 L762.575297,753.371556 C765.875609,759.072104 772.176204,762.072392 778.676818,761.172306 C784.677385,760.372229 790.777962,759.972191 796.978547,759.972191 C867.085172,760.472238 924.990644,819.677923 924.090559,889.684642 C923.190474,959.291324 866.685134,1015.49672 796.978547,1016 C726.071847,1016.49682 668.066366,958.891287 668.066366,887.98448 C668.066366,849.880822 684.767944,815.677538 711.170439,792.175282 L665.166092,712.567639 C661.565751,706.367045 654.365071,703.266746 647.464419,705.06692 C629.762747,709.567352 611.160989,711.967582 592.059184,711.967582 C483.64894,711.967582 393.240396,634.960189 372.53844,532.650367 C371.038298,525.249656 364.437675,519.949147 356.836956,519.949148 L264.828262,519.949148 C257.92761,519.949148 251.827033,524.449581 249.626825,531.050214 C232.825238,582.155119 184.720691,618.958653 128.015333,618.958653 C57.0086232,618.958653 -0.496810198,561.153104 0,490.046277 C0.403274695,419.439499 58.6087745,362.234007 129.215446,362.934074 C183.420568,363.434122 229.624934,397.737415 247.726646,445.742024 C250.026862,451.942619 256.02743,455.943003 262.628054,455.943003 L356.736947,455.943003 C364.337665,455.943003 370.83828,450.642494 372.43843,443.241783 C393.140387,340.931962 483.54893,263.924569 591.959174,263.924569 C625.762368,263.924569 657.865402,271.425289 686.668124,284.926586 C692.7687,287.826864 700.06939,286.626749 704.869844,281.826288 L777.276685,209.419337 C782.077139,204.618876 783.477271,197.318175 780.476988,191.217589 C772.476232,174.515986 767.975806,155.714181 767.975807,136.012289 C767.975807,65.3055011 825.281222,8 895.987904,8 C966.594575,8 1024,65.405511 1024,136.012289 C1024,206.719077 966.694585,264.024578 895.987904,264.024579 C876.186032,264.024579 857.484265,259.524147 840.782687,251.523379 C834.68211,248.6231 827.38142,249.923225 822.580967,254.723686 L759.975051,317.129677 Z" id="路径" fill="#000000" fill-rule="nonzero"></path>
    </g>
</svg>