<?xml version="1.0" encoding="UTF-8"?>
<svg width="1024px" height="1024px" viewBox="0 0 1024 1024" version="1.1" xmlns="http://www.w3.org/2000/svg" xmlns:xlink="http://www.w3.org/1999/xlink">
    <title>CommunityFilled</title>
    <g id="CommunityFilled" stroke="none" stroke-width="1" fill="none" fill-rule="evenodd">
        <path d="M55,57.319149 C55,19.0695006 91.7678095,-8.46251481 128.458269,2.38364279 L128.458269,2.38364279 L561.992539,130.570512 C586.333121,137.758515 603.024902,160.113887 603.024902,185.494339 L603.024902,185.494339 L603.024,262.106 L896.271439,176.589826 C932.633154,165.988361 969.260036,192.640054 969.988937,230.30786 L970,231.452653 L970,820.645874 C970,846.084708 953.12795,868.360053 928.654974,875.508539 L928.654974,875.508539 L602.902148,970.492669 C600.557461,1006.73606 565.010192,1032.09826 529.552165,1021.61643 L529.552165,1021.61643 L96.0087164,893.426845 C71.6836073,886.234714 55,863.878889 55,838.50573 L55,838.50573 Z M911.786216,232.705531 L603.024,322.746 L603.024902,413.476117 L670.146553,624.213546 C683.609416,666.505372 645.997493,707.229322 603.024902,697.465702 L603.024902,697.465702 L603.024,909.815 L911.786216,819.787662 L911.786216,232.705531 Z" id="形状结合" fill="#000000" fill-rule="nonzero"></path>
    </g>
</svg>