<?xml version="1.0" encoding="UTF-8"?>
<svg width="1024px" height="1024px" viewBox="0 0 1024 1024" version="1.1" xmlns="http://www.w3.org/2000/svg" xmlns:xlink="http://www.w3.org/1999/xlink">
    <title>DiscussionOutFilled</title>
    <g id="DiscussionOutFilled" stroke="none" stroke-width="1" fill="none" fill-rule="evenodd">
        <path d="M512.032,814.194963 C492.864,814.194963 473.728,804.839589 453.888,786.128841 C446.08,778.765257 446.08,766.814521 453.888,759.450937 C461.696,752.087352 474.368,752.087352 482.176,759.450937 C494.368,770.979171 504.16,776.562217 512.032,776.562217 C519.904,776.562217 529.696,770.979171 541.888,759.450937 C549.696,752.087352 562.368,752.087352 570.176,759.450937 C577.984,766.814521 577.984,778.765257 570.176,786.128841 C550.336,804.839589 531.2,814.194963 512.032,814.194963 Z M0.032,525.234626 C0.032,572.283102 4.288,614.955679 12.832,653.191997 C21.376,691.428315 33.376,724.624803 48.832,752.721103 C64.288,780.817403 83.84,805.443162 107.488,826.598378 C131.136,847.753594 156.832,865.19684 184.544,878.897936 C212.288,892.599031 244,903.704766 279.744,912.154781 C315.488,920.604796 351.84,926.549985 388.8,929.929991 C425.76,933.309997 466.496,935 510.944,935 C555.392,935 596.192,933.309997 633.344,929.929991 C670.496,926.549985 706.944,920.634974 742.688,912.154781 C778.432,903.704766 810.24,892.599031 838.144,878.897936 C866.048,865.19684 891.936,847.753594 915.744,826.598378 C939.552,805.443162 959.2,780.817403 974.688,752.721103 C990.176,724.624803 1002.24,691.458494 1010.944,653.191997 C1019.648,614.9255 1024,572.283102 1024,525.234626 C1024,440.945725 996.256,368.335953 940.8,307.405308 C944,299.287258 946.752,289.962063 949.056,279.49008 C951.36,269.018097 953.6,254.200392 955.712,235.067143 C957.856,215.933895 957.056,193.843141 953.312,168.794882 C949.568,143.746623 942.56,118.185327 932.256,92.1109952 L924.256,90.5718853 C918.912,89.545812 910.208,89.9079556 898.112,91.5979586 C886.016,93.2879616 871.904,96.3360027 855.712,100.742082 C839.52,105.148161 818.656,113.869784 793.056,126.90695 C767.456,139.944116 740.448,156.451824 712,176.430074 C663.648,162.547907 596.992,148.031988 512,148.031988 C427.008,148.031988 360.192,162.547907 311.456,176.430074 C283.008,156.451824 255.904,140.034652 230.112,127.178558 C204.32,114.322463 183.712,105.510305 168.256,100.772261 C152.8,96.0342165 138.464,92.9861753 125.312,91.6281372 C112.16,90.2700991 103.712,89.8475983 99.968,90.3606349 C96.224,90.8736716 93.472,91.4470654 91.712,92.1411738 C81.408,118.215506 74.304,143.776802 70.368,168.825061 C66.432,193.87332 65.568,215.873538 67.712,234.825714 C69.856,253.777891 72.16,268.686132 74.656,279.520258 C77.152,290.354385 80,299.649401 83.2,307.435487 C27.744,368.034166 0,440.643939 0,525.264804 L0.032,525.234626 Z M136.576,632.640353 C136.576,577.926505 157.92,528.312845 200.576,483.769194 C213.376,470.188813 228.224,459.897902 245.12,452.926639 C262.016,445.955377 281.216,441.971798 302.72,441.036261 C324.224,440.100724 344.768,440.281795 364.32,441.609655 C383.872,442.937514 408.064,444.718053 436.864,446.98145 C465.664,449.244847 490.56,450.391635 511.52,450.391635 C532.48,450.391635 557.376,449.275026 586.176,446.98145 C614.976,444.687875 639.168,442.937514 658.72,441.609655 C678.272,440.281795 698.816,440.100724 720.32,441.036261 C741.824,441.971798 761.12,445.955377 778.176,452.926639 C795.232,459.897902 810.176,470.188813 822.976,483.769194 C865.632,528.312845 886.976,577.926505 886.976,632.640353 C886.976,664.720232 883.424,693.29939 876.32,718.408006 C869.216,743.516622 860.224,764.551124 849.376,781.511512 C838.528,798.502078 823.328,812.836925 803.776,824.546231 C784.224,836.255538 765.28,845.309126 746.976,851.706994 C728.672,858.104863 705.024,863.114515 676.032,866.705771 C647.04,870.297027 621.088,872.469888 598.176,873.224354 C575.232,873.97882 546.368,874.371142 511.52,874.371142 C476.672,874.371142 447.872,873.97882 425.12,873.224354 C402.368,872.469888 376.512,870.297027 347.52,866.705771 C318.528,863.114515 294.912,858.104863 276.576,851.706994 C258.272,845.278947 239.328,836.225359 219.776,824.546231 C200.224,812.867103 185.024,798.502078 174.176,781.511512 C163.328,764.520946 154.336,743.486444 147.232,718.408006 C140.128,693.329569 136.576,664.720232 136.576,632.640353 Z M256.032,603.035122 C256.032,553.029139 284.672,512.499246 320.032,512.499246 C355.392,512.499246 384.032,553.029139 384.032,603.035122 C384.032,653.041104 355.392,693.570998 320.032,693.570998 C284.672,693.570998 256.032,653.041104 256.032,603.035122 Z M640.032,603.035122 C640.032,553.029139 668.672,512.499246 704.032,512.499246 C739.392,512.499246 768.032,553.029139 768.032,603.035122 C768.032,653.041104 739.392,693.570998 704.032,693.570998 C668.672,693.570998 640.032,653.041104 640.032,603.035122 Z" id="形状" fill="#000000" fill-rule="nonzero"></path>
    </g>
</svg>