<?xml version="1.0" encoding="UTF-8"?>
<svg width="1024px" height="1024px" viewBox="0 0 1024 1024" version="1.1" xmlns="http://www.w3.org/2000/svg" xmlns:xlink="http://www.w3.org/1999/xlink">
    <title>DocmentOutlined</title>
    <g id="DocmentOutlined" stroke="none" stroke-width="1" fill="none" fill-rule="evenodd">
        <path d="M752.555555,0 C858.881111,0 945,87.2838091 945,195.047618 L945,195.047618 L945,682.666666 C945,870.887619 793.93111,1024 608.222222,1024 L608.222222,1024 L271.444445,1024 C165.118889,1024 79,936.71619 79,828.952381 L79,828.952381 L79,195.047618 C79,87.2838091 165.118889,0 271.444445,0 L271.444445,0 Z M752.555555,97.5238091 L271.444445,97.5238091 C218.522222,97.5238091 175.222222,141.409523 175.222222,195.047618 L175.222222,195.047618 L175.222222,828.952381 C175.222222,882.590475 218.522223,926.47619 271.444445,926.47619 L271.444445,926.47619 L560.111111,926.47619 L560.111111,828.952381 C560.111111,744.106666 620.731111,682.666666 704.444445,682.666666 L704.444445,682.666666 L848.777778,683.154286 L848.777778,195.047618 C848.777778,141.409523 805.477777,97.5238091 752.555555,97.5238091 L752.555555,97.5238091 Z M704.444445,780.190475 C661.144445,780.190475 656.333333,814.323809 656.333333,828.952381 L656.333333,828.952381 L656.333333,921.6 C732.601003,905.326253 796.504981,852.894691 828.09,780.678095 L828.09,780.678095 Z M560.111111,438.857143 C586.572222,438.857143 608.222222,460.799999 608.222222,487.619047 C608.222222,514.438095 586.572223,536.380952 560.111111,536.380952 L560.111111,536.380952 L319.555555,536.380952 C293.094445,536.380952 271.444445,514.438094 271.444445,487.619047 C271.444445,460.8 293.094444,438.857143 319.555555,438.857143 L319.555555,438.857143 Z M704.444445,243.809523 C730.905555,243.809523 752.555555,265.752382 752.555555,292.571429 C752.555555,319.390475 730.905556,341.333333 704.444445,341.333333 L704.444445,341.333333 L319.555555,341.333333 C293.094445,341.333333 271.444445,319.390477 271.444445,292.571429 C271.444445,265.752381 293.094444,243.809523 319.555555,243.809523 L319.555555,243.809523 Z" id="形状结合" fill="#000000" fill-rule="nonzero"></path>
    </g>
</svg>