<?xml version="1.0" encoding="UTF-8"?>
<svg width="1024px" height="1024px" viewBox="0 0 1024 1024" version="1.1" xmlns="http://www.w3.org/2000/svg" xmlns:xlink="http://www.w3.org/1999/xlink">
    <title>DownloadFilled</title>
    <g id="DownloadFilled" stroke="none" stroke-width="1" fill="none" fill-rule="evenodd">
        <path d="M992.49918,580 C1066.04325,727.13733 1006.424,906.054891 859.335868,979.623556 C822.583955,998.005659 782.477664,1008.55478 741.552798,1010.67208 L726.172556,1011.06966 L297.762217,1011.06966 C133.312686,1011.06966 0,877.712389 0,713.207852 C0,672.104221 8.50381643,631.502357 24.9128277,593.938912 L31.4355937,580 L145.123034,636.862733 C133.274791,660.567143 127.106422,686.705515 127.106422,713.207852 C127.106422,804.238863 198.33315,878.628415 288.078215,883.650488 L297.762217,883.920728 L726.172556,883.920728 C752.666031,883.920728 778.795663,877.750296 802.492148,865.89809 C883.781716,825.239711 918.457269,728.438683 883.036981,645.964045 L878.81174,636.862733 L992.49918,580 Z M575.106422,15 L575.10816,623.943879 C580.842291,619.674164 586.210078,614.767922 591.103778,609.24054 L596.598869,602.501415 L715.27121,444.324535 L816.990359,520.588388 L698.318018,678.765269 C621.073358,781.723712 474.961962,802.589789 371.969082,725.370957 C357.832454,714.772031 344.958791,702.609267 333.589209,689.123701 L325.347806,678.765269 L206.675465,520.588388 L308.394614,444.324535 L427.066954,602.501415 C433.026359,610.444631 440.073068,617.51032 447.999847,623.491318 L448,15 L575.106422,15 Z" id="形状结合" fill="#000000" fill-rule="nonzero"></path>
    </g>
</svg>