<?xml version="1.0" encoding="UTF-8"?>
<svg width="1024px" height="1024px" viewBox="0 0 1024 1024" version="1.1" xmlns="http://www.w3.org/2000/svg" xmlns:xlink="http://www.w3.org/1999/xlink">
    <title>DownloadOutlined</title>
    <g id="DownloadOutlined" stroke="none" stroke-width="1" fill="none" fill-rule="evenodd">
        <path d="M992.115883,615.056701 C1061.88548,754.641623 1005.32605,924.375528 865.786855,994.167988 C826.562931,1013.78638 783.311508,1024 739.457828,1024 L739.457828,1024 L284.480293,1024 C128.470735,1024 2,897.487817 2,741.42713 C2,697.559078 12.2102761,654.29348 31.822238,615.056701 L31.822238,615.056701 L92.1910322,645.250991 C77.2650499,675.112739 69.4943638,708.040681 69.4943638,741.42713 C69.4943638,860.199493 165.746843,956.483516 284.480293,956.483516 L284.480293,956.483516 L739.457828,956.483516 C772.833339,956.483516 805.750494,948.710284 835.602458,933.77941 C941.800884,880.662795 984.846302,751.484221 931.747089,645.250991 L931.747089,645.250991 Z M545.716242,0 L545.717508,705.876529 C578.15144,698.388132 608.217737,679.851198 629.753839,651.145803 L629.753839,651.145803 L755.784608,483.159831 L809.797795,523.65645 L683.767026,691.642422 C612.91921,786.075228 478.907703,805.213457 384.443949,734.388852 C368.236531,722.237271 353.839073,707.84453 341.683509,691.642422 L341.683509,691.642422 L215.65274,523.65645 L269.665927,483.159831 L395.696696,651.145803 C404.01366,662.231456 413.864553,672.079121 424.953839,680.393361 C441.350403,692.686756 459.488403,701.01875 478.220472,705.553201 L478.221879,0 L545.716242,0 Z" id="形状结合" fill="#000000" fill-rule="nonzero"></path>
    </g>
</svg>