<?xml version="1.0" encoding="UTF-8"?>
<svg width="1024px" height="1024px" viewBox="0 0 1024 1024" version="1.1" xmlns="http://www.w3.org/2000/svg" xmlns:xlink="http://www.w3.org/1999/xlink">
    <title>EmailOutlined</title>
    <g id="EmailOutlined" stroke="none" stroke-width="1" fill="none" fill-rule="evenodd">
        <path d="M842.322581,99 C942.660249,99 1024,180.358815 1024,280.72 L1024,280.72 L1024,743.28 C1024,843.641185 942.660249,925 842.322581,925 L842.322581,925 L181.677419,925 C81.3397513,925 0,843.641185 0,743.28 L0,743.28 L0,280.72 C0,180.358815 81.3397513,99 181.677419,99 L181.677419,99 Z M920.106426,252.911451 L607.216668,445.503746 C552.717103,479.0498 484.927725,481.286204 428.656185,452.212957 L416.783332,445.503746 L103.893574,252.911451 C100.788128,261.600954 99.0967742,270.962912 99.0967742,280.72 L99.0967742,280.72 L99.0967742,743.28 C99.0967742,788.89872 136.069388,825.88 181.677419,825.88 L181.677419,825.88 L842.322581,825.88 C887.930612,825.88 924.903226,788.89872 924.903226,743.28 L924.903226,743.28 L924.903226,280.72 C924.903226,270.962912 923.211872,261.600954 920.106426,252.911451 Z M820.039,198.12 L203.96,198.12 L468.719696,361.087373 C492.312582,375.609475 521.384672,377.223042 546.195159,365.928074 L555.280304,361.087373 L820.039,198.12 Z" id="形状结合" fill="#000000" fill-rule="nonzero"></path>
    </g>
</svg>