<?xml version="1.0" encoding="UTF-8"?>
<svg width="1024px" height="1024px" viewBox="0 0 1024 1024" version="1.1" xmlns="http://www.w3.org/2000/svg" xmlns:xlink="http://www.w3.org/1999/xlink">
    <title>EmailFilled</title>
    <g id="EmailFilled" stroke="none" stroke-width="1" fill="none" fill-rule="evenodd">
        <path d="M14.6285721,167.71028 L495.542857,534.093458 C501.028571,537.775701 506.514286,539.616822 512,539.616822 C517.485714,539.616822 522.971429,537.775701 528.457143,534.093458 L528.457143,534.093458 L1011.2,169.551402 C1018.51429,184.280374 1024,200.850467 1024,219.261683 L1024,219.261683 L1024,804.738317 C1024,859.971962 978.285714,906 923.428571,906 L923.428571,906 L100.571429,906 C45.714286,906 0,859.971962 0,804.738317 L0,804.738317 L0,219.261683 C0,200.850467 5.48571535,182.439252 14.6285721,167.71028 L14.6285721,167.71028 Z M923.428571,118 C939.885714,118 956.342857,123.523364 970.971428,130.887851 L970.971428,130.887851 L512,478.859813 L54.8571428,129.046729 C69.485715,121.682243 84.114286,118 100.571429,118 L100.571429,118 Z" id="形状结合" fill="#000000" fill-rule="nonzero"></path>
    </g>
</svg>