<?xml version="1.0" encoding="UTF-8"?>
<svg width="1024px" height="1024px" viewBox="0 0 1024 1024" version="1.1" xmlns="http://www.w3.org/2000/svg" xmlns:xlink="http://www.w3.org/1999/xlink">
    <title>FireworkOutlined</title>
    <g id="FireworkOutlined" stroke="none" stroke-width="1" fill="none" fill-rule="evenodd">
        <path d="M559.129937,44.2573875 C562.365197,20.7854184 544.21961,0 520.728812,0 C497.238014,0 479.092428,20.9268158 482.327688,44.2573875 L520.728812,321.396299 L559.129937,44.2573875 Z M94.3778625,304.428611 L352.35465,409.628279 L132.778987,237.547639 C114.211411,222.983706 87.204026,228.356808 75.3882953,248.859431 C63.7132281,269.362055 72.5750261,295.520574 94.3778625,304.428611 L94.3778625,304.428611 Z M86.2193818,705.290251 C64.4165454,714.198288 55.4140839,740.356808 67.2298146,760.859431 C79.0455453,781.362055 106.05293,786.593759 124.620507,772.171223 L344.196169,600.23198 L86.2193818,705.290251 Z M465.870063,979.742613 C462.634803,1003.21458 480.78039,1024 504.271188,1024 C527.761985,1024 545.907572,1003.07318 542.672312,979.742613 L504.271188,702.603701 L465.870063,979.742613 L465.870063,979.742613 Z M930.481474,719.712787 L672.504687,614.513118 L892.080349,786.452361 C910.647926,801.016294 937.65531,795.643192 949.471041,775.140569 C961.286772,754.779343 952.28431,728.620823 930.481474,719.712787 L930.481474,719.712787 Z M938.780618,318.709749 C960.583455,309.801712 969.585916,283.643192 957.770185,263.140569 C945.954455,242.637945 918.94707,237.406241 900.379493,251.828777 L680.803831,423.909417 L938.780618,318.709749 Z M449.553101,390.53963 L374.438813,204.319249 C368.108957,188.624137 349.400717,182.119856 334.771717,190.603701 C320.142717,199.087545 316.344804,218.600387 326.7539,232.03314 L449.553101,390.53963 Z M146.70467,506.061309 C146.70467,523.028998 161.614997,536.037559 178.353949,533.7752 L376.408102,506.061309 L178.494612,478.347418 C161.614997,476.085059 146.70467,489.093621 146.70467,506.061309 Z M324.503285,827.457608 C339.132284,835.941453 357.840525,829.437172 364.17038,813.74206 L439.284669,627.521679 L316.485467,786.028169 C306.076371,799.460922 309.874285,818.973764 324.503285,827.457608 L324.503285,827.457608 Z M575.446899,633.46037 L650.561187,819.680751 C656.891043,835.375863 675.599283,841.880144 690.228283,833.396299 C704.857283,824.912455 708.655196,805.399613 698.2461,791.96686 L575.446899,633.46037 L575.446899,633.46037 Z M648.591898,517.938691 L846.505388,545.652582 C863.24434,548.056338 878.154667,534.906379 878.154667,517.938691 C878.154667,500.971002 863.24434,487.962441 846.505388,490.2248 L648.591898,517.938691 Z M700.496715,196.542392 C685.867716,188.058547 667.159475,194.562828 660.829619,210.25794 L585.715331,396.478321 L708.514533,237.971831 C718.923629,224.680475 715.125715,205.026236 700.496715,196.542392 L700.496715,196.542392 Z M601.188312,492.062966 L539.859043,483.013532 L512.429668,427.161558 L485.000293,483.013532 L423.811688,492.062966 L468.120678,535.471969 L457.570919,596.838442 L512.429668,567.851975 L567.288418,596.838442 L556.879322,535.471969 L601.188312,492.062966 Z M193.123612,848.808616 L179.479256,820.953328 L165.694237,848.808616 L135.029603,853.333333 L157.25443,875.108534 L152.049882,905.79177 L179.479256,891.227838 L206.908631,905.79177 L201.56342,875.108534 L223.788247,853.333333 L193.123612,848.808616 Z" id="形状" fill="#000000" fill-rule="nonzero"></path>
    </g>
</svg>