<?xml version="1.0" encoding="UTF-8"?>
<svg width="1024px" height="1024px" viewBox="0 0 1024 1024" version="1.1" xmlns="http://www.w3.org/2000/svg" xmlns:xlink="http://www.w3.org/1999/xlink">
    <title>ForksOutlined</title>
    <g id="ForksOutlined" stroke="none" stroke-width="1" fill="none" fill-rule="evenodd">
        <path d="M882,271.058319 C882,188.021833 814.24752,120.469983 730.979756,120.469983 C647.711992,120.469983 579.959511,188.021833 579.959511,271.058319 C579.959511,320.38064 603.863853,364.239477 640.725698,391.723875 C641.583644,401.708429 644.539428,480.270737 529.579285,497.903252 C467.258932,507.46349 416.66422,526.330064 376.081551,549.870964 L376.081551,276.287343 C416.993405,249.317612 444.040489,203.047842 444.040489,150.588336 C444.040489,67.5518504 376.288008,0 293.020244,0 C209.75248,0 142,67.5518504 142,150.588336 C142,203.047842 169.048231,249.317612 209.958938,276.287343 L209.958938,747.713801 C169.047084,774.684676 142,820.956732 142,873.411664 C142,956.441287 209.75248,1024 293.020244,1024 C376.288008,1024 444.040489,956.441287 444.040489,873.411664 C444.040489,827.058404 422.917589,785.532727 389.774273,757.885922 L397.584103,759.617493 C397.745828,758.852354 420.664908,682.205753 554.827895,661.624764 C739.326375,633.324903 804.538281,498.66496 806.924012,401.174318 C851.788381,375.037205 882,326.502898 882,271.058319 L882,271.058319 Z M293.021391,60.2344195 C342.987555,60.2344195 383.633308,100.763929 383.633308,150.587193 C383.633308,200.410456 342.987555,240.939965 293.021391,240.939965 C243.055227,240.939965 202.409474,200.410456 202.409474,150.587193 C202.409474,100.763929 243.055227,60.2344195 293.021391,60.2344195 Z M293.021391,963.764437 C243.055227,963.764437 202.409474,923.234928 202.409474,873.411664 C202.409474,823.5884 243.055227,783.058891 293.021391,783.058891 C342.987555,783.058891 383.633308,823.5884 383.633308,873.411664 C383.633308,923.234928 342.987555,963.764437 293.021391,963.764437 Z M730.979756,361.411092 C681.013592,361.411092 640.367839,320.881583 640.367839,271.058319 C640.367839,221.235055 681.013592,180.705546 730.979756,180.705546 C780.94592,180.705546 821.591673,221.235055 821.591673,271.058319 C821.591673,320.881583 780.94592,361.411092 730.979756,361.411092 Z" id="形状" fill="#000000" fill-rule="nonzero"></path>
    </g>
</svg>