<?xml version="1.0" encoding="UTF-8"?>
<svg width="1024px" height="1024px" viewBox="0 0 1024 1024" version="1.1" xmlns="http://www.w3.org/2000/svg" xmlns:xlink="http://www.w3.org/1999/xlink">
    <title>GithubFilled</title>
    <g id="GithubFilled" stroke="none" stroke-width="1" fill="none" fill-rule="evenodd">
        <path d="M512.0572,0 C229.144453,-0.117468041 0,235.141645 0,525.513907 C0,755.132442 143.343984,950.319948 342.973076,1022.0023 C369.857223,1028.93551 365.7388,1009.31099 365.7388,995.914621 L365.7388,904.842787 C210.497151,923.527202 204.205117,818.001386 193.79466,800.374579 C172.744945,763.475797 122.980673,754.074834 137.852754,736.448027 C173.202547,717.763612 209.238744,741.148509 250.994973,804.487501 C281.196738,850.43471 340.11306,842.678915 369.971623,835.040632 C376.492459,807.425302 390.449335,782.747773 409.66864,763.593309 C248.821361,733.980274 181.782594,633.15494 181.782594,513.292654 C181.782594,455.124192 200.429896,401.656212 237.038096,358.529292 C213.700369,287.434505 239.211708,226.563266 242.643727,217.514838 C309.11049,211.404212 378.208468,266.399849 383.585298,270.747795 C421.337504,260.289223 464.46654,254.766157 512.743604,254.766157 C561.249469,254.766157 604.492906,260.524247 642.588314,271.100331 C655.515585,260.994295 719.579935,213.754453 781.356273,219.512543 C784.673891,228.560971 809.613228,288.022065 787.648307,358.176756 C824.71411,401.421188 843.590213,455.359217 843.590213,513.645191 C843.590213,633.7425 776.093844,734.685346 614.788962,763.828333 C641.673109,791.091128 658.3756,828.930006 658.3756,870.764294 L658.3756,1002.96534 C659.290805,1013.54143 658.3756,1024 675.535694,1024 C878.139202,953.845309 1024,757.247659 1024,525.631419 C1024,235.141645 794.741146,0 512.0572,0 Z" id="路径" fill="#000000" fill-rule="nonzero"></path>
    </g>
</svg>