<?xml version="1.0" encoding="UTF-8"?>
<svg width="1024px" height="1024px" viewBox="0 0 1024 1024" version="1.1" xmlns="http://www.w3.org/2000/svg" xmlns:xlink="http://www.w3.org/1999/xlink">
    <title>LanguageOutlined</title>
    <g id="LanguageOutlined" stroke="none" stroke-width="1" fill="none" fill-rule="evenodd">
        <path d="M513,1 C795.769792,1 1025,230.230208 1025,513 C1025,795.769792 795.769792,1025 513,1025 C230.230208,1025 1,795.769792 1,513 C1,230.230208 230.230208,1 513,1 Z M154.059267,408.392 C149.43363,412.838426 149.43363,412.838426 154.059267,417.164679 C141.745073,436.332383 115.303935,438.67577 96.363829,427.139095 C74.548049,539.108583 100.898635,654.795987 169.392553,747.758288 C237.886472,840.720589 342.668694,903.01114 459.78883,920.392 L459.413778,920.091566 L451.912746,916.486355 C465.403122,912.336684 483.091728,912.16731 496.75933,912.160397 L498.481653,912.160102 L498.481653,912.160102 C494.041042,886.894786 493.863418,865.782672 493.856313,840.796451 L493.856017,837.652415 L493.856017,837.652415 C493.856017,837.652415 386.841293,763.264902 386.841293,719.401506 C386.841293,675.53811 400.780711,653.726585 386.841293,653.726585 C363.525585,653.726585 335.584241,671.271944 330.958605,653.726585 C321.644823,627.408547 303.017261,605.536936 275.075916,596.824344 C211.004601,596.824344 201.815837,530.488468 200.690682,462.109639 L200.628174,443.482717 C200.628174,421.490932 172.68683,421.490932 154.059267,408.392 Z M560.562977,101.192 L560.506212,101.251324 L565.388049,102.615767 C629.760179,123.141743 631.633442,191.007975 578.784718,182.702667 L578.784036,186.264971 C578.77222,207.06544 578.555591,231.578866 574.584067,256.14532 C570.326651,299.45157 519.578253,286.519019 506.919536,308.11282 C494.317585,329.765945 532.293735,351.359746 574.584067,342.698496 C581.926123,342.698496 580.751394,338.308073 580.130829,333.786735 L580.068982,333.318718 C579.674802,330.197821 579.692967,327.084516 583.098899,325.375996 C599.958267,321.104695 621.07505,321.104695 637.991183,325.375996 C620.769329,364.273854 600.98636,401.876412 578.784718,437.912921 C573.505522,445.931103 574.772529,458.966165 576.49777,471.829286 L576.665955,473.073393 L576.665955,473.073393 L576.835775,474.315381 C577.800403,481.34534 578.784718,488.222918 578.784718,494.092398 C578.784718,623.951823 519.578253,463.837347 511.120186,468.167972 C506.214508,473.191497 491.378946,469.474089 476.481895,465.465316 L474.941006,465.049922 C464.672346,462.278322 454.53629,459.506722 447.769837,459.506722 C439.480932,459.506722 437.270742,467.810743 435.188806,476.280844 L434.934111,477.318276 L434.934111,477.318276 L434.678271,478.354048 C432.663361,486.452422 430.31954,494.092398 422.395637,494.092398 C388.563372,494.092398 397.021438,485.431148 397.021438,498.3637 C397.021438,515.686199 401.165323,550.331199 401.165323,602.239375 C401.165323,619.561875 434.997589,597.968074 456.114372,597.968074 C481.488571,597.968074 498.404704,619.561875 515.320837,628.223125 C544.838921,641.274323 574.470536,684.521249 595.58732,688.733227 C616.704103,693.182499 599.78797,727.708851 625.105404,723.378226 C637.764121,719.106925 654.680254,727.768175 663.13832,740.700726 C675.853802,758.023226 667.395736,779.735674 650.479603,792.668226 C625.162169,818.592652 616.704103,848.847703 604.045386,909.417129 C610.970783,907.044183 619.145021,913.095194 625.900121,920.392 C755.097861,889.144696 860.910667,792.689276 908.081653,663.164742 C875.952354,698.818244 838.827686,701.547131 849.840202,671.351403 C837.12472,645.426977 820.208587,623.714529 799.091804,602.120728 C761.002122,567.535052 727.169856,502.575677 845.582786,411.691877 C827.247515,362.927853 872.659952,317.367306 901.49685,351.537717 C842.188673,207.517364 710.317964,110.685486 560.562977,101.192 Z" id="形状结合" fill="#000000" fill-rule="nonzero"></path>
    </g>
</svg>