<?xml version="1.0" encoding="UTF-8"?>
<svg width="1024px" height="1024px" viewBox="0 0 1024 1024" version="1.1" xmlns="http://www.w3.org/2000/svg" xmlns:xlink="http://www.w3.org/1999/xlink">
    <title>LinkOutlined</title>
    <g id="LinkOutlined" stroke="none" stroke-width="1" fill="none" fill-rule="evenodd">
        <path d="M483.520467,81.7809003 L483.520467,166.739335 L84.9427848,166.739335 L84.9427848,712.433894 C84.9427848,851.392974 197.570626,964.041566 336.504109,964.041566 L336.504109,964.041566 L882.09815,964.041566 L882.09815,565.39045 L967.040934,565.39045 L967.040934,1049 L336.504109,1049 C150.658021,1049 0,898.314222 0,712.433894 L0,712.433894 L0,81.7809003 L483.520467,81.7809003 Z M705.675503,-0.00550717767 L834.494666,0.00635840052 C939.155501,0.0159987467 1024.00769,84.8681845 1024.01733,189.52902 L1024.01733,189.52902 L1024.02945,321.134536 L939.07884,321.126711 L939.066717,189.521195 C939.066129,183.128948 938.491912,176.870629 937.392741,170.794912 L709.574088,399.369867 L562.55773,546.413311 L502.49411,486.338626 L649.463507,339.342225 L888.217958,99.7959815 C872.518297,90.3757127 854.142543,84.9587771 834.50249,84.956968 L834.50249,84.956968 L705.683328,84.9451024 L705.675503,-0.00550717767 Z" id="形状结合" fill="#000000" fill-rule="nonzero"></path>
    </g>
</svg>