<?xml version="1.0" encoding="UTF-8"?>
<svg width="1024px" height="1024px" viewBox="0 0 1024 1024" version="1.1" xmlns="http://www.w3.org/2000/svg" xmlns:xlink="http://www.w3.org/1999/xlink">
    <title>LoginOutlined</title>
    <g id="LoginOutlined" stroke="none" stroke-width="1" fill="none" fill-rule="evenodd">
        <path d="M1006.07647,6.73521618 C1018.72231,15.1872683 1025.9485,30.8839351 1023.53977,45.9768848 L918.157778,798.209479 C916.35123,809.68012 910.329401,819.943326 900.694475,826.584224 C891.05955,833.225121 879.618076,835.036276 868.176602,832.621403 L456.885729,734.215374 L456.885729,888.767175 L538.782594,812.094992 C553.837165,798.209479 576.720112,795.190889 592.979048,807.868966 C613.453265,823.565633 614.055448,853.147814 595.989962,870.051917 L444.23989,1013.13308 C436.411514,1020.37769 426.776588,1024 416.53948,1024 C411.119835,1024 405.700189,1022.79256 400.280544,1020.37769 C385.225972,1013.73679 375.591047,999.247563 375.591047,982.947178 L375.591047,682.295628 C375.591047,670.423114 380.343847,659.609469 389.354912,651.837874 L602.613975,412.433694 C617.668546,395.529591 643.562407,394.322154 660.423526,409.415104 C677.284645,424.508054 678.489011,450.467926 663.43444,467.372029 L493.165734,658.515189 L844.089289,742.667425 L928.394885,141.364324 C929.599251,131.704837 919.964325,125.063939 911.533766,129.893682 L147.363755,573.626392 L286.467988,609.245753 C306.340022,614.075497 320.79241,632.187036 318.985862,652.713447 C316.577131,678.673319 292.489818,694.973705 268.402504,688.936525 L30.540286,627.96101 C14.2813498,623.734984 2.83987573,610.453188 0.431144706,594.152803 C-1.97758632,577.852418 5.85078976,561.552032 20.3031779,553.099981 L962.719307,5.52777988 C975.967329,-2.32055405 992.828448,-1.7168359 1006.07647,6.73521618 Z" id="路径" fill="#000000" fill-rule="nonzero"></path>
    </g>
</svg>