<?xml version="1.0" encoding="UTF-8"?>
<svg width="1024px" height="1024px" viewBox="0 0 1024 1024" version="1.1" xmlns="http://www.w3.org/2000/svg" xmlns:xlink="http://www.w3.org/1999/xlink">
    <title>LogoFilled</title>
    <g id="LogoFilled" stroke="none" stroke-width="1" fill-rule="evenodd">
        <path d="M875.485993,203.94785 C870.935701,249.584334 856.047536,272.690683 811.884144,284.213336 L810.542,284.556 L812.3325,285.720569 C871.891248,325.008627 926.853393,419.428844 962.098309,593.892676 C972.282692,645.194088 978.591602,714.257149 981.115166,761.501331 C990.127894,934.339304 932.086826,1037.93389 724.073064,1019.99192 C460.631023,997.361601 587.440107,923.700347 572.208596,625.809548 C563.513078,455.824439 553.916436,347.470626 620.967064,296.721257 L623.013,295.208 L621.527519,295.204052 C572.773181,295.070212 514.802265,294.493132 445.889859,294.46987 L441.613266,294.469146 L441.613266,294.469146 C425.718596,294.469146 410.323669,294.403128 395.461653,294.240366 L395.469879,294.23086 C471.159445,348.59654 523.812049,497.807342 523.812049,671.881642 C523.812049,891.422833 472.4395,1025.3114 296.691303,1021.07385 C155.642109,1017.73791 7.38273328,878.079056 50.6438278,638.251718 C84.4730006,450.610295 172.909936,329.269971 263.621965,288.007635 C170.146625,277.883526 124.568134,252.827291 148.068714,193.218732 C169.06837,139.933786 310.748455,12.0861596 527.774946,1.44720247 C711.814852,-7.47872206 883.957957,119.196836 875.485993,203.94785 Z" fill-rule="nonzero"></path>
    </g>
</svg>