<svg xmlns="http://www.w3.org/2000/svg" width="1024" height="1024" viewBox="0 0 1024 1024"><path d="M908.514293,3.33873582 C898.623156,1.20194489 888.598355,0 878.43989,0 L145.426446,0 C135.134317,0 124.975852,1.20194489 115.352043,3.33873582 C49.8566767,14.823987 0,71.8495948 0,140.627553 L0,684.574392 C0,761.632415 62.5547579,824 139.678893,824 L884.321107,824 C961.445242,824 1024,761.498865 1024,684.574392 L1024,140.627553 C1023.86634,71.8495948 974.009659,14.823987 908.514293,3.33873582 L908.514293,3.33873582 Z M872.558674,82.5335494 L567.403733,366.459643 C552.2997,380.482334 532.517426,388.228201 511.933168,388.228201 C491.215246,388.228201 471.566636,380.482334 456.462603,366.326094 L151.307662,82.5335494 L872.558674,82.5335494 L872.558674,82.5335494 Z M942.464952,684.574392 C942.464952,716.626256 916.40047,742.668395 884.321107,742.668395 L139.678893,742.668395 C107.59953,742.668395 81.5350476,716.626256 81.5350476,684.574392 L81.5350476,140.627553 C81.5350476,136.888169 81.9360397,133.282334 82.6043597,129.676499 L400.992038,426.02269 C432.269417,455.136467 472.101292,469.693355 512.066832,469.693355 C551.898708,469.693355 591.864247,455.136467 623.141626,426.02269 L941.529304,129.676499 C942.197624,133.282334 942.598616,136.888169 942.598616,140.627553 L942.464952,684.574392 L942.464952,684.574392 Z" transform="translate(0 100)"/></svg>
