<?xml version="1.0" encoding="UTF-8"?>
<svg width="1024px" height="1024px" viewBox="0 0 1024 1024" version="1.1" xmlns="http://www.w3.org/2000/svg" xmlns:xlink="http://www.w3.org/1999/xlink">
    <title>RedditOutFilled</title>
    <g id="RedditOutFilled" stroke="none" stroke-width="1" fill="none" fill-rule="evenodd">
        <path d="M866.976921,22 C914.546751,22 952.614796,61.6132674 952.614798,108.889631 C952.6148,156.165995 914.546753,195.779263 866.976921,195.779263 C820.320724,195.779261 782.252677,157.154781 782.252677,109.816618 L782.252677,109.816618 L591.912443,66.3718034 L531.978112,339.647726 C647.095884,343.541073 750.823696,378.272206 827.934332,432.346478 C848.886984,411.149364 877.453246,397.615346 909.79586,397.615346 C939.955532,397.483943 968.931361,409.514073 990.348852,431.059185 C1011.76634,452.604298 1023.87104,481.899487 1024,512.5 L1024,512.47 L1023.9899,513.747753 C1023.42379,556.488561 999.736799,595.463864 962.351662,615.169221 L961.20295,615.76641 C965.953842,633.193776 967.842016,652.475117 967.842016,670.829469 C967.842016,854.311201 764.16274,1003 512.913632,1003 C262.639067,1003 58.9597908,854.311199 58.9597908,670.829469 C58.9141069,652.646541 60.834064,634.513373 64.6852262,616.755197 C26.6780875,597.473856 0,558.849376 0,512.5 C0.1289556,481.899487 12.2336567,452.604298 33.6511479,431.059185 C55.0686391,409.514073 84.0444678,397.483943 114.20414,397.615346 C145.447241,397.546013 175.357167,410.453027 196.9793,433.335265 C274.029028,379.260993 376.843207,344.46806 491.047348,339.647726 L491.047348,339.647726 L556.707115,38.3767803 C559.569831,27.7473229 570.046157,20.0224278 580.522484,22.9269885 L580.522484,22.9269885 L790.840828,70.265151 C805.358808,41.0263171 834.711518,22.4186774 866.976921,22 Z M701.487508,803.14149 C693.489264,795.411689 680.91949,795.411689 672.921246,803.14149 C637.715916,838.923208 564.442539,850.479652 512.060908,850.479652 C459.679277,850.479652 385.43136,838.861409 351.200572,803.14149 C343.202328,795.411689 330.632554,795.411689 322.63431,803.14149 C314.046159,811.793373 314.046159,825.32739 322.63431,833.052286 C376.843207,888.115346 481.545563,892.93568 512,892.93568 C542.454437,892.93568 647.095883,888.115346 701.36569,833.052286 C709.953841,825.327391 709.953841,811.855172 701.36569,803.14149 L701.36569,803.14149 Z M324.522484,541.483011 C301.780103,541.384704 279.940975,550.507292 263.859534,566.823792 C247.778094,583.140292 238.786928,605.298639 238.883819,628.373441 C238.981198,651.302856 248.063974,673.2514 264.129557,689.377908 C280.19514,705.504416 301.923661,714.484015 324.522484,714.336084 C371.178682,714.336084 409.246729,675.711604 409.246729,628.373441 C409.246729,580.10829 371.178682,541.483011 324.522484,541.483011 Z M700.187915,541.482938 L699.477516,541.483011 C652.821318,541.483011 614.753271,580.10829 614.753271,628.373441 C614.853773,675.806996 652.7273,714.234113 699.477516,714.336084 C747.047347,714.336084 785.116181,675.711604 785.116181,628.373441 C785.213072,605.298639 776.221906,583.140292 760.140466,566.823792 C744.059025,550.507292 722.219897,541.384704 699.477516,541.483011 Z" id="形状结合" fill="#000000" fill-rule="nonzero"></path>
    </g>
</svg>