<?xml version="1.0" encoding="UTF-8"?>
<svg width="1024px" height="1024px" viewBox="0 0 1024 1024" version="1.1" xmlns="http://www.w3.org/2000/svg" xmlns:xlink="http://www.w3.org/1999/xlink">
    <title>ScanOutlined</title>
    <g id="ScanOutlined" stroke="none" stroke-width="1" fill="none" fill-rule="evenodd">
        <path d="M842.322581,0 C938.944039,0 1017.94877,75.4261617 1023.66844,170.610138 L1024,181.677419 L1024,346.83871 C1024,374.203528 1001.81643,396.387097 974.451613,396.387097 C949.367196,396.387097 928.636468,377.746737 925.355544,353.562132 L924.903226,346.83871 L924.903226,181.677419 C924.903226,138.91989 892.407764,103.752083 850.765972,99.5231288 L842.322581,99.0967742 L710.193548,99.0967742 C682.82873,99.0967742 660.645161,76.9132057 660.645161,49.5483871 C660.645161,24.4639701 679.285521,3.73324232 703.470126,0.452318373 L710.193548,0 L842.322581,0 Z M974.451613,627.612903 C999.53603,627.612903 1020.26676,646.253263 1023.54768,670.437868 L1024,677.16129 L1024,842.322581 C1024,938.944039 948.573838,1017.94877 853.389862,1023.66844 L842.322581,1024 L710.193548,1024 C682.82873,1024 660.645161,1001.81643 660.645161,974.451613 C660.645161,949.367196 679.285521,928.636468 703.470126,925.355544 L710.193548,924.903226 L842.322581,924.903226 C885.08011,924.903226 920.247917,892.407764 924.476871,850.765972 L924.903226,842.322581 L924.903226,677.16129 C924.903226,649.796472 947.086794,627.612903 974.451613,627.612903 Z M49.5483871,627.612903 C74.6328041,627.612903 95.3635319,646.253263 98.6444558,670.437868 L99.0967742,677.16129 L99.0967742,842.322581 C99.0967742,885.08011 131.592236,920.247917 173.234028,924.476871 L181.677419,924.903226 L313.806452,924.903226 C341.17127,924.903226 363.354839,947.086794 363.354839,974.451613 C363.354839,999.53603 344.714479,1020.26676 320.529874,1023.54768 L313.806452,1024 L181.677419,1024 C85.0559612,1024 6.051227,948.573838 0.331564193,853.389862 L0,842.322581 L0,677.16129 C0,649.796472 22.1835685,627.612903 49.5483871,627.612903 Z M313.806452,0 C341.17127,0 363.354839,22.1835685 363.354839,49.5483871 C363.354839,74.6328041 344.714479,95.3635319 320.529874,98.6444558 L313.806452,99.0967742 L181.677419,99.0967742 C138.91989,99.0967742 103.752083,131.592236 99.5231288,173.234028 L99.0967742,181.677419 L99.0967742,214.709677 C99.0967742,242.074496 76.9132057,264.258065 49.5483871,264.258065 C24.4639701,264.258065 3.73324232,245.617705 0.452318373,221.4331 L0,214.709677 L0,181.677419 C0,85.0559612 75.4261617,6.051227 170.610138,0.331564193 L181.677419,0 L313.806452,0 Z M710.193548,462.451613 C737.558367,462.451613 759.741935,484.635181 759.741935,512 C759.741935,537.084417 741.101576,557.815145 716.916971,561.096069 L710.193548,561.548387 L313.806452,561.548387 C286.441633,561.548387 264.258065,539.364819 264.258065,512 C264.258065,486.915583 282.898424,466.184855 307.083029,462.903931 L313.806452,462.451613 L710.193548,462.451613 Z" id="形状结合" fill="#000000" fill-rule="nonzero"></path>
    </g>
</svg>