<?xml version="1.0" encoding="UTF-8"?>
<svg width="1024px" height="1024px" viewBox="0 0 1024 1024" version="1.1" xmlns="http://www.w3.org/2000/svg" xmlns:xlink="http://www.w3.org/1999/xlink">
    <title>SearchOutlined</title>
    <g id="SearchOutlined" stroke="none" stroke-width="1" fill="none" fill-rule="evenodd">
        <path d="M512,0 C794.769792,0 1024,229.230208 1024,512 C1024,633.213067 981.878415,744.58811 911.474028,832.286349 L1009.43125,934.697392 C1028.97694,955.131521 1028.25672,987.541566 1007.82259,1007.08725 C987.388463,1026.63294 954.978417,1025.91272 935.432729,1005.47859 L935.432729,1005.47859 L839.707352,905.401851 C750.912043,979.449688 636.658663,1024 512,1024 C229.230208,1024 0,794.769792 0,512 C0,229.230208 229.230208,0 512,0 Z M512,113.777778 C292.06794,113.777778 113.777778,292.06794 113.777778,512 C113.777778,731.93206 292.06794,910.222222 512,910.222222 C731.93206,910.222222 910.222222,731.93206 910.222222,512 C910.222222,292.06794 731.93206,113.777778 512,113.777778 Z" id="形状结合" fill="#000000"></path>
    </g>
</svg>