<?xml version="1.0" encoding="UTF-8"?>
<svg width="1024px" height="1024px" viewBox="0 0 1024 1024" version="1.1" xmlns="http://www.w3.org/2000/svg" xmlns:xlink="http://www.w3.org/1999/xlink">
    <title>SlackFilled</title>
    <g id="SlackFilled" stroke="none" stroke-width="1" fill="none" fill-rule="evenodd">
        <path d="M215.131429,647.085714 C215.131429,706.285714 166.765714,754.651429 107.565714,754.651429 C48.3657143,754.651429 0,706.285714 0,647.085714 C0,587.885714 48.3657143,539.52 107.565714,539.52 L215.131429,539.52 L215.131429,647.085714 Z M269.348571,647.085714 C269.348571,587.885714 317.714286,539.52 376.914286,539.52 C436.114286,539.52 484.48,587.885714 484.48,647.085714 L484.48,916.434286 C484.48,975.634286 436.114286,1024 376.914286,1024 C317.714286,1024 269.348571,975.634286 269.348571,916.434286 L269.348571,647.085714 Z M376.914286,215.131429 C317.714286,215.131429 269.348571,166.765714 269.348571,107.565714 C269.348571,48.3657143 317.714286,0 376.914286,0 C436.114286,0 484.48,48.3657143 484.48,107.565714 L484.48,215.131429 L376.914286,215.131429 L376.914286,215.131429 Z M376.914286,269.348571 C436.114286,269.348571 484.48,317.714286 484.48,376.914286 C484.48,436.114286 436.114286,484.48 376.914286,484.48 L107.565714,484.48 C48.3657143,484.48 0,436.114286 0,376.914286 C0,317.714286 48.3657143,269.348571 107.565714,269.348571 L376.914286,269.348571 L376.914286,269.348571 Z M808.868571,376.914286 C808.868571,317.714286 857.234286,269.348571 916.434286,269.348571 C975.634286,269.348571 1024,317.714286 1024,376.914286 C1024,436.114286 975.634286,484.48 916.434286,484.48 L808.868571,484.48 L808.868571,376.914286 L808.868571,376.914286 Z M754.651429,376.914286 C754.651429,436.114286 706.285714,484.48 647.085714,484.48 C587.885714,484.48 539.52,436.114286 539.52,376.914286 L539.52,107.565714 C539.52,48.3657143 587.885714,0 647.085714,0 C706.285714,0 754.651429,48.3657143 754.651429,107.565714 L754.651429,376.914286 Z M647.085714,808.868571 C706.285714,808.868571 754.651429,857.234286 754.651429,916.434286 C754.651429,975.634286 706.285714,1024 647.085714,1024 C587.885714,1024 539.52,975.634286 539.52,916.434286 L539.52,808.868571 L647.085714,808.868571 Z M647.085714,754.651429 C587.885714,754.651429 539.52,706.285714 539.52,647.085714 C539.52,587.885714 587.885714,539.52 647.085714,539.52 L916.434286,539.52 C975.634286,539.52 1024,587.885714 1024,647.085714 C1024,706.285714 975.634286,754.651429 916.434286,754.651429 L647.085714,754.651429 Z" id="形状" fill="#000000" fill-rule="nonzero"></path>
    </g>
</svg>