<?xml version="1.0" encoding="UTF-8"?>
<svg width="1024px" height="1024px" viewBox="0 0 1024 1024" version="1.1" xmlns="http://www.w3.org/2000/svg" xmlns:xlink="http://www.w3.org/1999/xlink">
    <title>TimeOutFilled</title>
    <g id="TimeOutFilled" stroke="none" stroke-width="1" fill-rule="evenodd">
        <path d="M512,0 C794.769792,0 1024,229.230208 1024,512 C1024,794.769792 794.769792,1024 512,1024 C229.230208,1024 0,794.769792 0,512 C0,229.230208 229.230208,0 512,0 Z M576,256 L448,256 L448,566.449988 L546.077426,689.04673 C546.108535,689.085643 546.139651,689.124551 546.170773,689.163455 L546.170773,689.163455 L590.024396,743.980483 L689.975604,664.019517 L680.497,652.171 L646.121981,609.202488 C600.729841,552.462313 576,481.962952 576,409.300073 L576,409.300073 L576,256 Z" fill-rule="nonzero"></path>
    </g>
</svg>