<?xml version="1.0" encoding="UTF-8"?>
<svg width="1024px" height="1024px" viewBox="0 0 1024 1024" version="1.1" xmlns="http://www.w3.org/2000/svg" xmlns:xlink="http://www.w3.org/1999/xlink">
    <title>TwitterFilled</title>
    <g id="TwitterFilled" stroke="none" stroke-width="1" fill="none" fill-rule="evenodd">
        <path d="M1024,201.298792 C985.61205,217.983572 944.8821,228.948895 903.168,233.829201 C946.976293,208.149523 979.732786,167.770393 995.328,120.223004 C954.020257,144.213093 908.827834,161.138196 861.696,170.269787 C802.612659,109.152722 711.36123,89.4571053 631.4426,120.572125 C551.52397,151.687145 499.115075,227.314574 499.2,311.401714 C499.270361,327.074496 501.15978,342.68887 504.832,357.945222 C335.746189,349.55022 178.276001,271.31494 71.68,142.744056 C52.9314356,174.013168 43.0353494,209.596684 43.008,245.840428 C41.1184998,313.825961 74.6704514,378.099042 132.096,416.499957 C97.28,415.499022 32.256,406.490601 32.256,390.976098 L32.256,393.478437 C34.9213368,491.565638 106.815834,574.731509 205.312,593.665568 C188.643973,598.234704 171.422878,600.591354 154.112,600.672118 C141.226342,600.718201 128.366375,599.544972 115.712,597.168843 C143.426775,680.829542 222.372944,738.102669 312.32,739.802173 C238.031794,797.401569 146.021295,828.791721 51.2,828.885446 C34.088032,828.861246 16.9921641,827.858597 0,825.882639 C96.0869822,886.14542 207.883286,918.112342 322.048,917.96872 C481.204029,919.583317 634.351928,858.633662 747.090682,748.810639 C859.829437,638.987615 922.707205,489.498614 921.6,333.922766 L921.6,307.397971 C961.839759,278.180733 996.502263,242.266052 1024,201.298792 Z" id="路径" fill="#000000" fill-rule="nonzero"></path>
    </g>
</svg>