<?xml version="1.0" encoding="UTF-8"?>
<svg width="1024px" height="1024px" viewBox="0 0 1024 1024" version="1.1" xmlns="http://www.w3.org/2000/svg" xmlns:xlink="http://www.w3.org/1999/xlink">
    <title>WechatOutFilled</title>
    <g id="WechatOutFilled" stroke="none" stroke-width="1" fill="none" fill-rule="evenodd">
        <path d="M694.192622,353.431917 C705.974582,353.431917 717.594023,354.272118 729.100304,355.491349 C697.751166,214.660222 541.627862,110 363.438213,110 C164.207888,110 1,240.995137 1,407.319804 C1,503.311636 55.3099343,582.152095 146.031143,643.301387 L109.787201,748.492017 L236.474266,687.192521 C281.834871,695.835095 318.188361,704.747567 363.438213,704.747567 C374.806052,704.747567 386.061935,704.207772 397.263646,703.341755 C390.175449,679.987443 386.061936,655.496042 386.061936,630.108114 C386.063139,477.383913 522.032996,353.431917 694.192622,353.431917 Z M499.352695,258.633499 C526.646103,258.633499 544.712095,275.972626 544.712095,302.280552 C544.712095,328.479345 526.646103,346.035563 499.352695,346.035563 C472.168836,346.035563 444.930804,328.479345 444.930804,302.280552 C444.930804,275.972626 472.170039,258.633499 499.352695,258.633499 Z M245.701683,346.034389 C218.517824,346.034389 191.112458,328.47817 191.112458,302.279378 C191.112458,275.971452 218.517824,258.632325 245.701683,258.632325 C272.855446,258.632325 290.95033,275.971452 290.95033,302.279378 C290.95033,328.479345 272.855446,346.034389 245.701683,346.034389 Z M1025,625.90828 C1025,486.134446 879.996545,372.207366 717.149808,372.207366 C544.712095,372.207366 408.909572,486.134447 408.909572,625.90828 C408.909572,765.885123 544.712096,879.568123 717.149808,879.568123 C753.226416,879.568123 789.637691,870.842233 825.879226,862.065884 L925.302978,914.571429 L898.03485,827.223344 C970.803227,774.554687 1025,704.747566 1025,625.90828 Z M617.199978,582.152095 C599.162878,582.152095 580.957241,564.839958 580.957241,547.174606 C580.957241,529.754509 599.162879,512.22528 617.199978,512.22528 C644.605344,512.22528 662.560583,529.754509 662.560583,547.174606 C662.560583,564.839958 644.605344,582.152095 617.199978,582.152095 Z M816.541056,582.152095 C798.643601,582.152095 780.548716,564.839958 780.548716,547.174606 C780.548716,529.754509 798.6436,512.22528 816.541056,512.22528 C843.724915,512.22528 861.901661,529.754509 861.901661,547.174606 C861.901661,564.839958 843.724915,582.152095 816.541056,582.152095 Z" id="形状" fill="#000000" fill-rule="nonzero"></path>
    </g>
</svg>